<svg width="232" height="68" xmlns="http://www.w3.org/2000/svg">

 <g>
  <title>Layer 1</title>
  <text font-style="italic" opacity="0.8" transform="matrix(1.44742 0 0 1.49848 -54.0898 -7.62691)" stroke="null" font-weight="bold" xml:space="preserve" text-anchor="start" font-family="'Caveat'" font-size="33" stroke-width="0" id="svg_3" y="39.3513" x="87.76398" fill="#000000">Rz Novel</text>
  <path id="svg_5" d="m70.67829,33.78709c-3.04643,-0.48039 -6.21714,-0.79669 -8.79177,-0.8823l-0.45405,-0.01427c0.104,-0.21404 0.18263,-0.3591 0.208,-0.38051c0.0558,-0.04281 0.10146,-0.22355 0.10654,-0.39953c0,-0.09751 0.04566,-0.4138 0.11668,-0.83236c0.69756,0.02378 1.62341,0.04281 2.63296,0.04994c3.89871,0.02854 7.97753,0.32343 10.77537,0.78718c1.66653,0.27587 2.21697,0.26636 0.98673,-0.01427c-1.24546,-0.283 -4.93871,-0.69918 -7.88114,-0.87992c-1.97599,-0.12604 -4.80934,-0.17361 -6.47841,-0.14745c0.04819,-0.27111 0.104,-0.57314 0.16234,-0.8823c0.2359,-1.19622 0.31454,-2.39958 0.31961,-4.7944c0.00507,-3.71471 -0.208,-4.73732 -1.49912,-7.19398c-0.52507,-1.00359 -1.11863,-1.85498 -1.83648,-2.6255c0.62653,-1.73369 0.61131,-4.41865 -0.03805,-6.77304c-0.53522,-1.93108 -0.72292,-2.05474 -2.58984,-1.68375c-1.58282,0.3163 -2.85111,0.74675 -4.47705,1.5149c-0.76858,0.36386 -1.82887,0.92987 -2.59745,1.37458c-2.00389,-0.66113 -4.07627,-1.09872 -6.28817,-1.33416c-2.24233,-0.23782 -7.73909,-0.10464 -9.68971,0.23306c-1.9075,0.33057 -3.62476,0.73486 -5.17968,1.21525c-0.77619,-0.44947 -1.90243,-1.05591 -2.70652,-1.43642c-1.63355,-0.77053 -2.90184,-1.1986 -4.48974,-1.5149c-1.86185,-0.37337 -2.05462,-0.24733 -2.58731,1.68375c-0.65951,2.38531 -0.66458,5.11545 -0.01268,6.84439c0.0761,0.19739 0.12176,0.3377 0.13951,0.4471c-2.64311,3.12016 -3.50555,6.61132 -2.93228,11.4842c0.14966,1.26995 0.38049,2.43525 0.70263,3.50305c-1.68682,-0.00951 -4.08642,0.04756 -5.8189,0.1522c-2.9475,0.18312 -6.64075,0.59454 -7.88621,0.87755c-1.2277,0.28062 -0.68234,0.29014 0.98673,0.01665c2.79784,-0.46137 6.87919,-0.76102 10.77537,-0.78718c0.73561,-0.00238 1.42302,-0.01665 2.01404,-0.03092c0.17756,0.56363 0.38049,1.10109 0.61131,1.6124l-0.01776,0.00238c-2.57462,0.08324 -5.7428,0.39953 -8.78923,0.87992c-2.28545,0.3591 -5.6591,1.07731 -6.05227,1.28421c-0.41346,0.21641 -0.0761,0.16885 1.69443,-0.25209c3.22906,-0.76577 7.42709,-1.35318 12.62707,-1.76223l0.58088,-0.04756c1.11609,2.43049 2.83589,4.28547 5.26593,5.7314c1.48643,0.88706 3.86828,1.7979 5.06807,1.94059c0.32975,0.03805 1.28858,0.22355 2.13072,0.40905c0.84468,0.1855 2.49599,0.46374 3.66789,0.62308l0.0279,0c-0.02283,0.01427 -0.04312,0.02378 -0.06341,0.03805c-1.42048,0.69205 -2.34379,1.76936 -2.96525,3.465c-0.27902,0.07848 -0.62653,0.1855 -1.00195,0.30678c-1.34185,0.42807 -1.86438,0.51606 -3.22399,0.52558c-1.41034,0.00951 -1.74516,-0.04756 -2.58731,-0.41856c-1.22517,-0.53509 -2.36662,-1.51965 -3.1276,-2.69447c-1.27082,-1.96437 -3.4675,-3.35323 -5.2989,-3.35323c-1.56507,0 -1.86185,0.59454 -0.73053,1.46258c1.70458,1.30562 2.97794,2.6374 3.50047,3.65525c0.29424,0.57076 0.74575,1.45306 1.00702,1.95962c0.27649,0.53985 0.86751,1.27232 1.43063,1.77887c1.32409,1.18433 2.60252,1.75034 4.51003,2.01669c1.27843,0.17598 1.59297,0.17598 3.10223,-0.00476c0.728,-0.08324 1.34185,-0.18074 1.89228,-0.30203c0,0.58027 0,1.24854 0,2.03334c0,4.19986 -0.05327,5.55066 -0.23083,5.94544c-0.33483,0.7515 -1.08565,1.52441 -1.81619,1.87162c-0.728,0.34721 -0.95375,0.7301 -0.64683,1.08207c0.16995,0.19025 0.49717,0.22355 1.59551,0.15696c2.08506,-0.12129 3.55881,-0.84425 4.30964,-2.11895c0.24097,-0.40905 0.29678,-1.23189 0.37288,-5.51261c0.08117,-4.64457 0.11668,-5.09167 0.43883,-5.75518c0.19532,-0.39478 0.47688,-0.82285 0.63414,-0.93938c0.2638,-0.20452 0.28156,0.19977 0.28156,5.75518c-0.00254,6.13093 -0.06849,6.87055 -0.72292,8.05012c-0.14712,0.26873 -0.42614,0.61833 -0.62146,0.7848c-0.34244,0.29252 -0.48702,1.04164 -0.24858,1.26757c0.39317,0.36624 2.36409,-0.20928 3.43959,-1.00359c1.83141,-1.36032 2.04955,-2.48519 2.06477,-10.60904l0.00761,-4.76586l0.55551,0.04994l0.55551,0.04756l0.09132,6.23319c0.104,7.01799 0.11922,7.12025 1.39258,8.47581c0.72292,0.76577 1.45092,1.18909 2.6355,1.51965c1.58536,0.4471 2.06223,-0.24257 0.99687,-1.4388c-1.15921,-1.30086 -1.21502,-1.7979 -1.1516,-9.49843c0.04312,-4.93709 0.04312,-4.93709 0.38302,-4.64933c0.71531,0.60881 0.85229,1.60765 0.85229,6.23795c0,5.75043 0.17502,6.29741 2.34126,7.30099c1.01209,0.46374 1.29619,0.52082 2.59238,0.52558c1.3799,0.00476 1.4636,-0.01427 1.51433,-0.35197c0.04312,-0.27349 -0.12683,-0.45899 -0.77112,-0.8276c-0.84468,-0.48753 -1.43063,-1.11061 -1.79843,-1.8954c-0.13951,-0.30203 -0.23336,-2.28067 -0.29678,-6.35448c-0.09132,-5.69097 -0.11161,-5.95019 -0.48956,-6.84201c-0.50985,-1.1986 -1.28858,-2.14511 -2.27531,-2.77295c-0.25619,-0.15696 -0.51239,-0.28776 -0.84468,-0.38526c0.40839,-0.03805 0.80409,-0.07848 1.18712,-0.1308c3.98749,-0.49704 6.09539,-0.91084 7.78728,-1.52441c3.57911,-1.29135 5.999,-3.43646 7.31041,-6.47815c0.11668,-0.27111 0.23336,-0.52795 0.33229,-0.73486l1.00956,0.07848c5.20251,0.41142 9.40054,0.99883 12.6296,1.76698c1.77053,0.42094 2.10789,0.47088 1.69443,0.24971c-0.38556,-0.20214 -3.7592,-0.91798 -6.04212,-1.27708zm-15.25496,-0.07372c-0.59102,1.21763 -2.23979,2.78246 -3.5715,3.39603c-1.31395,0.60881 -3.37364,1.07256 -5.70729,1.29373c-1.59551,0.1522 -10.49381,0.19739 -11.96248,0.06183c-4.86261,-0.4471 -7.58689,-1.32464 -9.59586,-3.08211c-1.90243,-1.66948 -2.79023,-3.93588 -2.6355,-6.72548c0.09893,-1.74558 0.5479,-2.84192 1.72233,-4.1737c1.0679,-1.21287 2.1916,-1.96199 3.51569,-2.3425c1.10848,-0.31868 4.51003,-0.34721 9.08347,-0.07135c2.02165,0.12129 3.69325,0.12129 5.71236,0c4.78398,-0.283 7.97753,-0.25209 9.15703,0.09037c1.85424,0.53747 3.54359,1.9834 4.55822,3.90972c0.45658,0.8609 0.54536,1.22714 0.61131,2.55654c0.09132,1.83119 -0.24605,3.77654 -0.8878,5.08691zm-24.12282,-7.86224c-2.72174,-0.4471 -4.27666,3.92161 -2.18906,6.15234c0.9918,1.05829 1.87199,1.23189 2.97286,0.58979c1.0197,-0.59692 1.57268,-1.71229 1.57268,-3.15822c0,-1.9287 -0.936,-3.34609 -2.35648,-3.58391zm16.52071,0.2616c-2.72174,-0.4471 -4.2792,3.91685 -2.1916,6.14996c0.99434,1.05829 1.87199,1.23427 2.9754,0.58741c1.01717,-0.59454 1.57268,-1.71229 1.57268,-3.15822c0,-1.92156 -0.936,-3.34371 -2.35648,-3.57915zm-7.32055,8.58997c-0.05834,0.17598 -0.34244,0.43758 -0.62907,0.5779c-0.72546,0.34959 -1.24799,0.2283 -2.01404,-0.42569c-0.47434,-0.40191 -0.68995,-0.61357 -0.83453,-0.19263c-0.13444,0.39002 0.71024,1.17244 1.36214,1.41264c0.59863,0.22355 1.02731,0.23068 1.67668,-0.02378c0.64429,-0.25209 1.20741,-0.92987 1.20741,-1.36983c0,-0.40905 -0.62653,-0.39002 -0.76858,0.0214zm-0.80409,-1.36745c0.41346,-0.34246 0.50731,-1.0464 0.11161,-1.41977s-1.1998,-0.3163 -1.51433,0.10226c-0.36527,0.4899 -0.16995,0.86328 0.09132,1.26043c0.40585,0.29489 0.95122,0.35435 1.31141,0.05708z" stroke-dasharray="2,2" fill="#206bc4"/>
 </g>
</svg>